<?xml version="1.0" encoding="UTF-8"?>
<svg id="Layer_1" data-name="Layer 1" xmlns="http://www.w3.org/2000/svg" viewBox="0 0 35 35">
  <defs>
    <style>
      .cls-1 {
        fill: #2b2b2b;
      }

      .cls-2 {
        fill: #c1272d;
      }

      .cls-3 {
        fill: #fff;
      }
    </style>
  </defs>
  <circle class="cls-1" cx="17.5" cy="17.5" r="16.82"/>
  <path class="cls-3" d="M16.9,4.25c.85.04,1.49.81,1.49,1.66v18.58c0,1.24.28,2.15.83,2.72.67.7,1.68.71,2.57.73.17,0,.37,0,.6-.02.7-.05,1.33.44,1.47,1.14h0c.15.81-.42,1.58-1.25,1.66-.28.03-.57.04-.88.04-1.19,0-3.25,0-4.78-1.46-1.14-1.08-1.7-2.61-1.7-4.58V5.82c0-.9.75-1.62,1.66-1.57Z"/>
  <path class="cls-2" d="M23.75,10.79h0c0,.76-.62,1.37-1.37,1.37h-9.75c-.76,0-1.37-.62-1.37-1.37h0c0-.76.62-1.37,1.37-1.37h9.75c.76,0,1.37.62,1.37,1.37Z"/>
</svg>