<?xml version="1.0" encoding="UTF-8"?>
<svg id="Layer_1" data-name="Layer 1" xmlns="http://www.w3.org/2000/svg" viewBox="0 0 35 35">
  <defs>
    <style>
      .cls-1 {
        fill: #ffb400;
      }
    </style>
  </defs>
  <path class="cls-1" d="M27.21.61v4.77h3.29c1.06,0,1.92.84,1.92,1.86s-.87,1.86-1.92,1.86h-3.29v16.77c0,1.69.39,2.92,1.16,3.7.94.95,2.35.97,3.6.99.24,0,.52,0,.84-.03.73-.05,1.4.3,1.78.88,0-.04.01-.09.01-.13V3.7c0-1.72-1.4-3.12-3.12-3.12h-4.28s0,.02,0,.03Z"/>
  <path class="cls-1" d="M25.2,32.43c-1.6-1.47-2.38-3.55-2.38-6.23V9.12h-5.97c-1.06,0-1.92-.84-1.92-1.86s.87-1.86,1.92-1.86h5.97V.58H3.7C1.98.58.59,1.98.59,3.7v27.6c0,1.72,1.4,3.12,3.12,3.12h27.78s.01,0,.02,0c-1.7,0-4.32-.14-6.31-1.98Z"/>
</svg>